<svg width="120" height="120" viewBox="0 0 120 120" xmlns="http://www.w3.org/2000/svg">
  <circle cx="60" cy="60" r="55" fill="#f8f9fa" stroke="#667eea" stroke-width="2"/>
  <rect x="45" y="35" width="30" height="20" rx="3" fill="#3498db"/>
  <rect x="47" y="37" width="26" height="16" rx="1" fill="#ecf0f1"/>
  <circle cx="55" cy="43" r="1" fill="#3498db"/>
  <circle cx="65" cy="43" r="1" fill="#3498db"/>
  <circle cx="55" cy="49" r="1" fill="#3498db"/>
  <circle cx="65" cy="49" r="1" fill="#3498db"/>
  <line x1="55" y1="43" x2="65" y2="49" stroke="#3498db" stroke-width="0.5"/>
  <line x1="65" y1="43" x2="55" y2="49" stroke="#3498db" stroke-width="0.5"/>
  <circle cx="35" cy="70" r="8" fill="#667eea"/>
  <rect x="30" y="78" width="10" height="15" rx="5" fill="#667eea"/>
  <circle cx="85" cy="70" r="8" fill="#667eea"/>
  <rect x="80" y="78" width="10" height="15" rx="5" fill="#667eea"/>
  <line x1="43" y1="70" x2="55" y2="45" stroke="#667eea" stroke-width="1" opacity="0.6" stroke-dasharray="2,2"/>
  <line x1="77" y1="70" x2="65" y2="45" stroke="#667eea" stroke-width="1" opacity="0.6" stroke-dasharray="2,2"/>
  <circle cx="25" cy="45" r="3" fill="#f39c12"/>
  <circle cx="95" cy="45" r="3" fill="#f39c12"/>
</svg>
