<svg width="120" height="120" viewBox="0 0 120 120" xmlns="http://www.w3.org/2000/svg">
  <circle cx="60" cy="60" r="55" fill="#f8f9fa" stroke="#2ecc71" stroke-width="2"/>
  <rect x="25" y="25" width="70" height="50" rx="8" fill="#2ecc71"/>
  <rect x="25" y="25" width="70" height="12" rx="8" fill="#27ae60"/>
  <circle cx="35" cy="31" r="2" fill="#ecf0f1"/>
  <circle cx="42" cy="31" r="2" fill="#ecf0f1"/>
  <circle cx="49" cy="31" r="2" fill="#ecf0f1"/>
  <rect x="30" y="42" width="60" height="25" rx="3" fill="#ecf0f1"/>
  <rect x="35" y="55" width="6" height="8" fill="#3498db"/>
  <rect x="45" y="52" width="6" height="11" fill="#3498db"/>
  <rect x="55" y="58" width="6" height="5" fill="#3498db"/>
  <rect x="65" y="50" width="6" height="13" fill="#3498db"/>
  <rect x="75" y="56" width="6" height="7" fill="#3498db"/>
  <polyline points="35,58 45,55 55,60 65,53 75,59" fill="none" stroke="#e74c3c" stroke-width="2" stroke-linecap="round"/>
  <circle cx="35" cy="58" r="1.5" fill="#e74c3c"/>
  <circle cx="45" cy="55" r="1.5" fill="#e74c3c"/>
  <circle cx="55" cy="60" r="1.5" fill="#e74c3c"/>
  <circle cx="65" cy="53" r="1.5" fill="#e74c3c"/>
  <circle cx="75" cy="59" r="1.5" fill="#e74c3c"/>
  <circle cx="85" cy="35" r="8" fill="#f39c12"/>
</svg>
