<svg width="120" height="120" viewBox="0 0 120 120" xmlns="http://www.w3.org/2000/svg">
  <circle cx="60" cy="60" r="55" fill="#f8f9fa" stroke="#e67e22" stroke-width="2"/>
  <rect x="35" y="45" width="20" height="25" rx="2" fill="#e67e22"/>
  <rect x="37" y="47" width="16" height="21" rx="1" fill="#ecf0f1"/>
  <line x1="40" y1="52" x2="50" y2="52" stroke="#2c3e50" stroke-width="1"/>
  <line x1="40" y1="56" x2="50" y2="56" stroke="#2c3e50" stroke-width="1"/>
  <line x1="40" y1="60" x2="50" y2="60" stroke="#2c3e50" stroke-width="1"/>
  <rect x="40" y="40" width="20" height="25" rx="2" fill="#e67e22"/>
  <rect x="42" y="42" width="16" height="21" rx="1" fill="#ecf0f1"/>
  <line x1="45" y1="47" x2="55" y2="47" stroke="#2c3e50" stroke-width="1"/>
  <line x1="45" y1="51" x2="55" y2="51" stroke="#2c3e50" stroke-width="1"/>
  <line x1="45" y1="55" x2="55" y2="55" stroke="#2c3e50" stroke-width="1"/>
  <rect x="45" y="35" width="20" height="25" rx="2" fill="#e67e22"/>
  <rect x="47" y="37" width="16" height="21" rx="1" fill="#ecf0f1"/>
  <line x1="50" y1="42" x2="60" y2="42" stroke="#2c3e50" stroke-width="1"/>
  <line x1="50" y1="46" x2="60" y2="46" stroke="#2c3e50" stroke-width="1"/>
  <line x1="50" y1="50" x2="60" y2="50" stroke="#2c3e50" stroke-width="1"/>
  <rect x="70" y="30" width="35" height="25" rx="3" fill="#34495e"/>
  <rect x="70" y="30" width="35" height="6" rx="3" fill="#2c3e50"/>
  <circle cx="74" cy="33" r="1" fill="#e74c3c"/>
  <circle cx="78" cy="33" r="1" fill="#f39c12"/>
  <circle cx="82" cy="33" r="1" fill="#27ae60"/>
  <circle cx="25" cy="35" r="6" fill="#3498db"/>
  <circle cx="95" cy="35" r="6" fill="#2ecc71"/>
  <circle cx="25" cy="85" r="6" fill="#9b59b6"/>
  <circle cx="95" cy="85" r="6" fill="#e67e22"/>
</svg>
